<svg width="181" height="50" viewBox="0 0 181 50" fill="none" xmlns="http://www.w3.org/2000/svg">
<g clip-path="url(#clip0_3_48)">
<path d="M47.7891 41H41.6484V20.9844L30.8438 39.9922C30.5781 40.4766 30.2031 40.8438 29.7188 41.0938C29.25 41.3438 28.7422 41.4688 28.1953 41.4688C27.6641 41.4688 27.1641 41.3438 26.6953 41.0938C26.2422 40.8438 25.8828 40.4766 25.6172 39.9922L14.7656 20.9844V41H8.67188V9.99219C8.67188 9.28906 8.875 8.66406 9.28125 8.11719C9.70312 7.57031 10.25 7.20312 10.9219 7.01562C11.25 6.9375 11.5781 6.91406 11.9062 6.94531C12.2344 6.96094 12.5469 7.03125 12.8438 7.15625C13.1562 7.26562 13.4375 7.42969 13.6875 7.64844C13.9375 7.85156 14.1484 8.10156 14.3203 8.39844L28.1953 32.5156L42.0703 8.39844C42.4297 7.80469 42.9219 7.38281 43.5469 7.13281C44.1875 6.88281 44.8516 6.84375 45.5391 7.01562C46.1953 7.20312 46.7344 7.57031 47.1562 8.11719C47.5781 8.66406 47.7891 9.28906 47.7891 9.99219V41ZM106.688 27.2656H87.4219V21.125H106.688V27.2656ZM109.406 13.4844H84.9844V41H78.8906V10.4609C78.8906 10.0391 78.9688 9.64062 79.125 9.26562C79.2812 8.89062 79.4922 8.5625 79.7578 8.28125C80.0391 8 80.3672 7.78125 80.7422 7.625C81.1172 7.46875 81.5234 7.39062 81.9609 7.39062H109.406V13.4844ZM171.961 7.39062L156.047 39.8047C155.797 40.3047 155.422 40.7031 154.922 41C154.438 41.3125 153.898 41.4688 153.305 41.4688C152.727 41.4688 152.188 41.3125 151.688 41C151.203 40.7031 150.828 40.3047 150.562 39.8047L134.672 7.39062H141.492L153.305 31.6016L165.164 7.39062H171.961Z" fill="#F3EFF5"/>
<path d="M87.5312 40.9375V30.1875H106.731V40.9375H87.5312Z" fill="#16DB65"/>
<path d="M162.188 7.38L153.138 26.5L144.188 7.38H162.188Z" fill="#16DB65"/>
<path d="M40.1875 7.0675L28.2152 27.5625L16.375 7.0675H40.1875Z" fill="#16DB65"/>
<path d="M16.375 41.0312V27.5625L24.1562 41.0312H16.375Z" fill="#16DB65"/>
<path d="M39.8125 41.0312V27.5625L32.2812 41.0312H39.8125Z" fill="#16DB65"/>
<path d="M87.5 18.6875V16.1875H106.7V18.6875H87.5Z" fill="#16DB65"/>
</g>
<defs>
<clipPath id="clip0_3_48">
<rect width="180" height="50" fill="white" transform="translate(0.25)"/>
</clipPath>
</defs>
</svg>
